<svg xmlns="http://www.w3.org/2000/svg" data-name="Layer 2" viewBox="0 0 100 100"><path d="M84.45,35.7a1,1,0,0,0-.8-.4H67.83V29.57a1,1,0,0,0-1-1H19.71a1,1,0,0,0-1,1V35.3H13a1,1,0,0,0,0,2h5.73V42H9.62a1,1,0,1,0,0,2h9.09v4.73H6.25a1,1,0,0,0,0,2H18.71V70a1,1,0,0,0,1,1h5.8a7.72,7.72,0,0,0,15.32,0h4.88A7.72,7.72,0,0,0,61,71H72.63A7.72,7.72,0,0,0,88,71h5.8a1,1,0,0,0,1-1V49.76a1,1,0,0,0-.2-.6Zm-51.28,40A5.73,5.73,0,1,1,38.9,70,5.74,5.74,0,0,1,33.17,75.68Zm20.19,0A5.73,5.73,0,1,1,59.09,70,5.74,5.74,0,0,1,53.36,75.68ZM65.83,36.3V69H61a3,3,0,0,0-.06-.32c0-.1,0-.2,0-.3a3,3,0,0,0-.12-.45,2,2,0,0,0-.07-.26c-.06-.18-.12-.36-.19-.54l-.06-.15c-.09-.22-.2-.44-.31-.65l-.09-.15c-.09-.16-.19-.31-.29-.46s-.1-.14-.15-.21l-.27-.37-.19-.21c-.09-.11-.19-.22-.29-.32l-.21-.21-.31-.28-.24-.19a2.85,2.85,0,0,0-.33-.25l-.25-.17-.35-.21a1.51,1.51,0,0,0-.28-.15,2.53,2.53,0,0,0-.37-.18l-.28-.13-.4-.15-.29-.09-.43-.11-.29-.07-.49-.08-.25,0a6.34,6.34,0,0,0-.76,0,6.45,6.45,0,0,0-.76,0l-.24,0-.5.08-.28.07-.43.11-.29.1-.4.14-.28.13a2.53,2.53,0,0,0-.37.18,2.49,2.49,0,0,0-.28.15l-.35.21-.26.17a3.92,3.92,0,0,0-.32.25l-.24.19-.31.28-.22.21-.28.31c-.06.08-.13.15-.19.22s-.18.24-.27.36-.11.15-.16.22-.18.3-.27.45l-.1.16c-.11.22-.22.43-.31.65,0,0,0,.11-.06.15s-.14.36-.19.54,0,.17-.08.26-.08.29-.11.45,0,.2-.05.3a3,3,0,0,0-.06.32H40.84l-.06-.32c0-.1,0-.2-.05-.3s-.08-.31-.12-.45a2,2,0,0,0-.07-.26c-.06-.18-.12-.36-.19-.54s0-.1-.06-.15c-.1-.22-.2-.43-.31-.65l-.1-.16c-.09-.15-.18-.3-.28-.45l-.15-.22-.27-.36c-.06-.07-.13-.14-.19-.22l-.29-.31-.22-.21-.3-.28-.24-.19-.33-.25-.26-.17c-.11-.08-.23-.14-.34-.21l-.28-.15a2.53,2.53,0,0,0-.37-.18l-.29-.13-.39-.14-.29-.1L35,62.44l-.29-.07-.49-.08-.25,0a6.34,6.34,0,0,0-.76,0,6.45,6.45,0,0,0-.76,0l-.25,0-.49.08-.28.07-.43.11-.29.1-.4.14-.29.13-.37.18-.27.15-.35.21-.26.17a3.92,3.92,0,0,0-.32.25l-.25.19-.3.28-.22.21c-.1.1-.19.21-.28.31l-.19.22c-.1.12-.18.24-.27.36s-.11.15-.16.22-.19.3-.27.45l-.1.16a6.39,6.39,0,0,0-.31.65,1.56,1.56,0,0,0-.06.15c-.07.18-.14.36-.2.54s0,.17-.07.26-.08.29-.11.45l-.06.3a3.06,3.06,0,0,0,0,.32h-4.8V50.76H36.54a1,1,0,0,0,0-2H20.71V44H53.36a1,1,0,0,0,0-2H20.71V37.3H60.09a1,1,0,0,0,0-2H20.71V30.57H65.83ZM80.29,75.68A5.73,5.73,0,1,1,86,70,5.74,5.74,0,0,1,80.29,75.68ZM92.75,69H88l-.06-.32c0-.1,0-.2-.06-.3s-.07-.31-.11-.45,0-.18-.07-.26-.13-.36-.2-.54,0-.1,0-.15c-.1-.22-.2-.43-.32-.65a1.4,1.4,0,0,0-.1-.16q-.12-.23-.27-.45l-.16-.22-.26-.36-.2-.22c-.09-.1-.18-.21-.28-.31l-.22-.21-.3-.28-.25-.19a3.92,3.92,0,0,0-.32-.25l-.26-.17a4.05,4.05,0,0,0-.35-.21l-.27-.15a3.14,3.14,0,0,0-.37-.18l-.29-.13-.4-.14-.29-.1-.43-.11-.28-.07-.49-.08-.25,0a7.24,7.24,0,0,0-1.52,0l-.25,0-.49.08-.28.07-.44.11-.28.09-.4.15-.29.13a3.14,3.14,0,0,0-.37.18,1.82,1.82,0,0,0-.27.15,4.05,4.05,0,0,0-.35.21l-.26.17-.33.25-.24.19-.31.28-.21.21c-.1.1-.19.21-.29.32l-.19.21-.27.37-.15.21c-.1.15-.19.3-.28.46a1.19,1.19,0,0,0-.09.15c-.12.21-.22.43-.32.65l0,.15c-.07.18-.14.36-.2.54a2,2,0,0,0-.07.26q-.06.21-.12.45c0,.1,0,.2,0,.3l-.06.32H67.83V37.3H83.15l9.6,12.79Z"/><path d="M80.81 42H72.4a1 1 0 0 0-1 1v10.1a1 1 0 0 0 1 1H85.86a1 1 0 0 0 .89-1.45l-5-10.1A1 1 0 0 0 80.81 42zM73.4 52.13V44h6.79l4 8.1zM52.13 58.3a.4.4 0 0 0-.13-.13.28.28 0 0 0-.15 0H46.3l2-2.11a22 22 0 0 0 1.75-2 9.45 9.45 0 0 0 1-1.57 4.48 4.48 0 0 0 .46-1.31 7.07 7.07 0 0 0 .11-1.21 3.59 3.59 0 0 0-.23-1.28 3 3 0 0 0-.68-1.06 3.25 3.25 0 0 0-1.15-.71A4.53 4.53 0 0 0 48 46.63a4.94 4.94 0 0 0-1.1.12 5.26 5.26 0 0 0-1 .29 4.54 4.54 0 0 0-.73.35 2.76 2.76 0 0 0-.41.28.53.53 0 0 0-.15.17.52.52 0 0 0-.07.15.48.48 0 0 0 0 .18 2.09 2.09 0 0 0 0 .26 1.78 1.78 0 0 0 0 .35 1.11 1.11 0 0 0 .05.24.48.48 0 0 0 .09.13.2.2 0 0 0 .13 0 .8.8 0 0 0 .37-.17c.17-.11.38-.23.62-.36a6 6 0 0 1 .87-.37 3.5 3.5 0 0 1 1.11-.17 2.54 2.54 0 0 1 .94.17 1.78 1.78 0 0 1 .67.46 1.88 1.88 0 0 1 .41.66 2.15 2.15 0 0 1 .15.8 4.22 4.22 0 0 1-.1.91 4 4 0 0 1-.38 1.07 7.81 7.81 0 0 1-.82 1.31 15.16 15.16 0 0 1-1.42 1.63l-2.54 2.62c-.08.09-.15.17-.2.24l-.13.23a.91.91 0 0 0-.06.26 3.32 3.32 0 0 0 0 .35 1.86 1.86 0 0 0 0 .36.62.62 0 0 0 .11.23.42.42 0 0 0 .18.11.88.88 0 0 0 .24 0h7a.29.29 0 0 0 .16 0 .33.33 0 0 0 .12-.14 1 1 0 0 0 .07-.23 2.88 2.88 0 0 0 0-.32 2.85 2.85 0 0 0 0-.31A1.13 1.13 0 0 0 52.13 58.3zM60.48 46.78a4.85 4.85 0 0 0-.58 0l-.52 0a2.78 2.78 0 0 0-.37 0 1.18 1.18 0 0 0-.25.1.47.47 0 0 0-.14.14L54.07 54.8l-.12.25a1.55 1.55 0 0 0-.07.23 1.17 1.17 0 0 0 0 .27c0 .1 0 .21 0 .34a3.63 3.63 0 0 0 0 .38.55.55 0 0 0 .09.23.36.36 0 0 0 .14.11.56.56 0 0 0 .2 0h5.21v2.68a.2.2 0 0 0 0 .13.22.22 0 0 0 .13.09.77.77 0 0 0 .26.06 2.36 2.36 0 0 0 .4 0 2.56 2.56 0 0 0 .42 0 .77.77 0 0 0 .26-.06.27.27 0 0 0 .15-.09.28.28 0 0 0 0-.13V56.64h1.44a.29.29 0 0 0 .27-.19 1.4 1.4 0 0 0 0-1 .32.32 0 0 0-.27-.17H61.19V47.1a.19.19 0 0 0-.08-.15.62.62 0 0 0-.23-.11zm-1 8.46H55.37l4.1-7h0z"/></svg>